# xmcd CD database file
#
# Track frame offsets:
#	150
#	33307
#	71917
#	107025
#	138060
#	173555
#	185175
#	218992
#	243547
#	273600
#	303702
#
# Disc length: 4153 seconds
#
# Revision: 1
# Processed by: cddbd v1.4PL0 Copyright (c) Steve Scherf et al.
# Submitted via: CDex 1.50Beta7
#
DISCID=a910370b
DTITLE=Matthias Lupri Group - Same Time Twice
DYEAR=2001
DGENRE=Jazz
TTITLE0=Same Time Twice
TTITLE1=Song of Change
TTITLE2=Jade
TTITLE3=You Just Never Know
TTITLE4=Saucey
TTITLE5=Wish Song (prelude)
TTITLE6=The Wish Song
TTITLE7=Cathy's Tune
TTITLE8=After Hours
TTITLE9=Release
TTITLE10=After Hours (reprise)
EXTD=YEAR: 2001
EXTT0=
EXTT1=
EXTT2=
EXTT3=
EXTT4=
EXTT5=
EXTT6=
EXTT7=
EXTT8=
EXTT9=
EXTT10=
PLAYORDER=
